<?xml version="1.0" standalone="no"?>
<!DOCTYPE svg PUBLIC "-//W3C//DTD SVG 20010904//EN"
 "http://www.w3.org/TR/2001/REC-SVG-20010904/DTD/svg10.dtd">
<svg version="1.0" xmlns="http://www.w3.org/2000/svg"
 width="530.000000pt" height="530.000000pt" viewBox="0 0 530.000000 530.000000"
 preserveAspectRatio="xMidYMid meet">
<metadata>
Created by potrace 1.11, written by Peter Selinger 2001-2013
</metadata>
<g transform="translate(0.000000,530.000000) scale(0.100000,-0.100000)"
fill="#000000" stroke="none">
<path d="M1300 4766 c0 -11 210 -343 225 -356 8 -6 88 -58 178 -114 162 -101
166 -103 298 -135 74 -19 136 -35 138 -37 2 -2 -25 -70 -60 -152 -51 -120 -69
-152 -90 -161 -241 -107 -318 -158 -899 -600 -435 -331 -572 -434 -694 -517
-190 -131 -295 -204 -346 -239 l-45 -32 -3 -371 c-2 -289 1 -373 10 -382 38
-31 104 -80 110 -80 6 0 111 -48 296 -136 62 -30 114 -54 116 -54 2 0 77 -35
167 -79 221 -106 300 -140 351 -150 24 -5 70 -17 103 -26 33 -9 69 -18 80 -21
11 -2 56 -13 100 -23 44 -11 91 -22 105 -25 14 -2 52 -11 85 -20 33 -8 71 -17
85 -20 14 -2 63 -13 110 -24 47 -11 99 -23 115 -25 17 -3 73 -12 125 -21 52
-8 111 -17 130 -20 57 -7 132 -28 170 -46 37 -18 126 -18 144 1 6 5 23 9 39 9
16 0 81 16 145 36 285 87 267 84 416 84 137 0 140 0 167 -26 25 -24 36 -27
132 -31 82 -3 107 -1 119 10 12 13 38 9 204 -29 104 -24 200 -44 214 -44 19 0
311 91 590 183 19 7 67 29 105 51 93 52 425 266 425 275 0 3 -29 53 -63 111
l-63 104 44 101 c24 55 49 114 57 130 26 59 45 108 43 111 -2 1 -64 -38 -138
-87 -73 -49 -137 -89 -141 -89 -7 0 -409 536 -409 545 0 2 33 37 73 78 l73 73
-1 107 c-1 108 0 111 35 109 55 -2 440 -14 480 -15 30 0 119 12 198 28 160 32
151 23 124 125 l-17 65 -235 78 c-257 86 -252 85 -435 58 -33 -5 -104 -9 -157
-10 -92 -2 -100 0 -140 26 -49 32 -68 38 -68 21 0 -6 -7 -3 -15 8 -8 10 -15
14 -15 9 0 -6 -9 -11 -19 -11 -11 0 -18 3 -15 7 5 9 -29 21 -47 16 -8 -2 -11
-2 -7 0 4 3 1 11 -6 19 -16 16 -30 19 -21 5 3 -5 0 -13 -6 -17 -7 -4 -9 -3 -5
4 7 11 -9 25 -33 29 -8 1 -17 7 -21 14 -5 6 -13 8 -20 4 -9 -5 -11 -4 -6 3 7
12 -5 16 -33 13 -7 -2 -10 2 -7 7 3 5 -4 10 -17 11 -12 0 -33 2 -47 4 -14 2
-34 -3 -45 -10 -11 -7 -27 -13 -36 -13 -28 0 -144 67 -147 85 -3 13 -6 14 -19
3 -15 -12 -15 -11 -4 10 7 14 8 22 1 22 -5 0 -10 7 -10 16 0 8 -4 13 -9 10 -5
-3 -12 1 -15 10 -4 10 -2 13 7 9 6 -4 4 0 -5 8 -10 8 -15 17 -11 20 3 4 0 7
-8 7 -11 0 -11 2 1 10 10 6 11 10 3 10 -7 0 -13 7 -13 15 0 8 -5 15 -11 15 -5
0 -7 5 -4 11 4 5 -1 20 -12 31 -12 14 -13 18 -3 13 13 -8 13 -7 0 11 -8 10
-22 25 -30 32 -8 8 -10 11 -4 8 6 -3 11 1 11 9 0 8 -8 12 -20 9 -15 -2 -18 -1
-10 7 14 14 5 41 -11 32 -6 -4 -5 1 3 10 12 16 8 22 -12 18 -5 -1 -6 3 -2 9 8
12 -16 80 -28 80 -4 0 -6 4 -3 8 3 5 -4 19 -15 30 -11 12 -17 22 -13 22 3 0 1
7 -6 15 -7 8 -17 12 -22 9 -6 -4 -5 2 1 14 9 17 8 22 -8 27 -12 4 -18 12 -14
21 4 10 0 12 -13 8 -16 -6 -17 -5 -6 7 14 16 16 33 2 24 -6 -3 -10 3 -10 15 0
12 -4 18 -10 15 -5 -3 -10 -1 -10 5 0 7 -29 60 -65 120 -87 145 -86 135 -24
150 72 17 402 231 442 286 55 75 176 264 169 264 -4 0 -61 -46 -127 -103 -118
-101 -122 -104 -285 -172 -91 -38 -169 -72 -175 -76 -12 -9 -59 -17 -145 -25
-107 -10 -121 -8 -220 20 -132 39 -255 37 -405 -5 -70 -20 -104 -23 -285 -24
-208 -1 -214 0 -305 40 -16 8 -77 32 -134 55 -57 22 -116 47 -130 55 -22 12
-119 86 -304 234 -9 7 -17 11 -17 7z"/>
</g>
</svg>
